


<svg width="500" height="571.56897" viewBox="0 0 132.29167 151.22763" version="1.1" id="svg1503" xmlns="http://www.w3.org/2000/svg">
  <defs id="defs1500"></defs>
  <g id="layer1">
    <g id="g1487" transform="matrix(0.58630001,0,0,0.58630001,-22.84918,-8.73835)" style="fill:#d3e180;fill-opacity:1">
      <path fill="#0c0a0a" opacity="1" d="m 91.96,17.94 c 14.71,-4.32 30.77,-4.02 45.31,0.84 14.77,5.06 28.09,14.77 36.83,27.77 10.87,-1.68 22.04,-2.72 32.94,-0.59 24.12,3.99 45.94,19.6 57.57,41.09 -8.76,5 -18.01,9.09 -26.96,13.74 -7.23,-9.86 -16.5,-18.39 -27.52,-23.83 -7.4,-3.63 -15.84,-4.48 -23.96,-3.58 2.83,15.05 1.72,30.95 -4.41,45.08 -5.12,12.06 -13.63,22.49 -23.95,30.49 22.69,0.17 45.38,-0.07 68.06,0.12 0.19,10.8 0.15,21.6 0.05,32.4 -29.54,0.03 -59.07,0.07 -88.61,-0.02 -0.41,13.45 -0.66,27.29 -5.61,40 -4.4,11.25 -9.76,22.3 -17.57,31.61 -5.8,6.89 -11.32,14.15 -18.42,19.78 -5.95,-8.96 -10.73,-18.68 -16.23,-27.94 3.47,-2.68 7.39,-4.79 10.47,-7.97 11.16,-11.09 16.46,-26.75 18.28,-42.09 0.93,-10.39 0.68,-20.85 1.3,-31.26 C 93.59,162.6 77.89,156.73 65.67,146.36 49.36,132.91 39.29,112.18 39,91.02 38.62,77.35 42.09,63.61 49.01,51.81 58.34,35.62 74.06,23.27 91.96,17.94 M 81.99,53 c -10.34,8.88 -16.71,22.34 -16.58,36.01 -0.15,10.14 3.2,20.24 9.17,28.41 8.22,11.35 21.66,18.95 35.71,19.56 0.5,-10.4 0.07,-20.98 2.95,-31.1 5.01,-19.87 17.93,-37.46 35.09,-48.58 l 1.07,0.25 C 143.08,50.67 134.96,45.36 125.89,42.97 110.8,38.66 93.73,42.62 81.99,53 m 58.1,76.12 c 14.37,-9.84 22.86,-27.5 21.01,-44.89 -13.73,10.38 -22.14,27.62 -21.01,44.89 z" id="path853" style="fill:#d3e180;fill-opacity:1"></path>
      <path style="fill:#d3e180;fill-opacity:1;stroke:none;stroke-width:0.75px;stroke-linecap:butt;stroke-linejoin:miter;stroke-opacity:1" d="m 148.33,57.3 0.55086,-0.317579 c 0.18827,0.183583 0.59406,0.287031 0.51914,0.567579 -0.3949,-0.0026 -0.7453,-0.09919 -1.07,-0.25 v 0" id="path1052"></path>
    </g>
  </g>
</svg>
