<svg height="19" viewBox="0 0 180.338 19" width="180.338" xmlns="http://www.w3.org/2000/svg"><path d="m32.086 48.585h-2.048v-3.612a.133.133 0 0 0 -.133-.132h-3.474a.133.133 0 0 0 -.132.132v3.612h-1.738a.131.131 0 0 0 -.131.132v2.5a.129.129 0 0 0 .131.13h1.739v8.14a2.717 2.717 0 0 0 .62 1.95 4.263 4.263 0 0 0 3.093.91q.2 0 .416-.008l1.664-.061a.13.13 0 0 0 .127-.13v-2.62a.135.135 0 0 0 -.041-.094.121.121 0 0 0 -.1-.037c-.043 0-.085 0-.126 0-.075 0-.15 0-.223.009-.116 0-.228 0-.337 0-.889 0-1.124-.1-1.184-.162a1.533 1.533 0 0 1 -.172-.936v-6.959h2.048a.131.131 0 0 0 .133-.13v-2.5a.133.133 0 0 0 -.132-.134z" transform="translate(-24.43 -43.607)"/><path d="m53.511 48.993a4.114 4.114 0 0 0 -1.718-1.37 5.882 5.882 0 0 0 -2.3-.439 4.979 4.979 0 0 0 -2.16.475 4.055 4.055 0 0 0 -1.575 1.332v-5.991a.131.131 0 0 0 -.131-.131h-3.515a.13.13 0 0 0 -.131.131v18.1a.13.13 0 0 0 .131.131h3.518a.131.131 0 0 0 .131-.131v-7.279a4.147 4.147 0 0 1 .686-2.575 2.374 2.374 0 0 1 2-.88 1.717 1.717 0 0 1 1.7.867 3.592 3.592 0 0 1 .349 1.694v8.173a.131.131 0 0 0 .132.131h3.587a.131.131 0 0 0 .132-.131v-7.886a18.245 18.245 0 0 0 -.133-2.615 3.677 3.677 0 0 0 -.703-1.606z" transform="translate(-32.656 -42.684)"/><g transform="translate(23.222)"><path d="m.247 0h3.327a.247.247 0 0 1 .247.247v3.008a.247.247 0 0 1 -.247.247h-3.33a.244.244 0 0 1 -.244-.245v-3.01a.247.247 0 0 1 .247-.247z"/><path d="m.244 0h3.331a.246.246 0 0 1 .246.246v13.2a.245.245 0 0 1 -.245.245h-3.332a.244.244 0 0 1 -.244-.248v-13.199a.244.244 0 0 1 .244-.244z" transform="translate(0 4.851)"/></g><path d="m85.371 56.656a22.182 22.182 0 0 1 -3.635-.967.791.791 0 0 1 -.447-.76.9.9 0 0 1 .435-.728 2.84 2.84 0 0 1 1.565-.322 2.326 2.326 0 0 1 1.871.649 2.064 2.064 0 0 1 .358 1.012.131.131 0 0 0 .13.114h3.512a.127.127 0 0 0 .13-.143 4.422 4.422 0 0 0 -1.881-3.563 7.687 7.687 0 0 0 -4.175-1.026 6.041 6.041 0 0 0 -4.211 1.372 4.323 4.323 0 0 0 -1.5 3.29 3.2 3.2 0 0 0 .977 2.516 7.7 7.7 0 0 0 3.281 1.45 19.682 19.682 0 0 1 3.639 1.044.863.863 0 0 1 .427.79.836.836 0 0 1 -.536.8 3.463 3.463 0 0 1 -1.6.3 3.213 3.213 0 0 1 -2.328-.653 2.265 2.265 0 0 1 -.448-1.259.131.131 0 0 0 -.131-.115h-3.56a.132.132 0 0 0 -.132.131 4.462 4.462 0 0 0 1.556 3.5 7.056 7.056 0 0 0 4.772 1.375 7.125 7.125 0 0 0 4.689-1.3 4.2 4.2 0 0 0 1.53-3.363 3.543 3.543 0 0 0 -1.074-2.624 6.872 6.872 0 0 0 -3.214-1.52z" transform="translate(-49.121 -46.457)"/><path d="m.247 0h3.334a.248.248 0 0 1 .248.248v3.006a.248.248 0 0 1 -.248.248h-3.334a.247.247 0 0 1 -.247-.247v-3.008a.247.247 0 0 1 .247-.247z" transform="translate(41.8)"/><path d="m.244 0h3.337a.248.248 0 0 1 .248.248v13.194a.245.245 0 0 1 -.245.245h-3.336a.248.248 0 0 1 -.248-.248v-13.195a.244.244 0 0 1 .244-.244z" transform="translate(41.8 4.852)"/><path d="m120.819 56.656a22.278 22.278 0 0 1 -3.633-.967.791.791 0 0 1 -.455-.76.906.906 0 0 1 .435-.728 2.8 2.8 0 0 1 1.566-.322 2.337 2.337 0 0 1 1.873.648 1.929 1.929 0 0 1 .35 1.008.129.129 0 0 0 .13.118h3.515a.13.13 0 0 0 .131-.142 4.427 4.427 0 0 0 -1.872-3.563 7.7 7.7 0 0 0 -4.181-1.026 5.991 5.991 0 0 0 -4.2 1.372 4.319 4.319 0 0 0 -1.517 3.29 3.209 3.209 0 0 0 .981 2.513 7.656 7.656 0 0 0 3.289 1.45 19.16 19.16 0 0 1 3.633 1.044.881.881 0 0 1 .436.79.852.852 0 0 1 -.546.8 3.524 3.524 0 0 1 -1.6.3 3.226 3.226 0 0 1 -2.329-.651 2.337 2.337 0 0 1 -.444-1.262.129.129 0 0 0 -.129-.114h-3.561a.131.131 0 0 0 -.131.131 4.477 4.477 0 0 0 1.552 3.5 7.043 7.043 0 0 0 4.767 1.375 7.134 7.134 0 0 0 4.692-1.3 4.2 4.2 0 0 0 1.534-3.351 3.517 3.517 0 0 0 -1.076-2.623 6.812 6.812 0 0 0 -3.21-1.53z" transform="translate(-65.736 -46.457)"/><path d="m149.514 52.152a5.306 5.306 0 0 0 -3.474-1.122 4.529 4.529 0 0 0 -2.814.84 6.024 6.024 0 0 0 -1.062 1.175v-1.532a.129.129 0 0 0 -.13-.13h-3.411a.129.129 0 0 0 -.13.13v13.4a.13.13 0 0 0 .13.13h3.523a.131.131 0 0 0 .131-.13v-7.272a5.155 5.155 0 0 1 .324-1.989 2.293 2.293 0 0 1 2.322-1.43 1.848 1.848 0 0 1 1.837.962 3.614 3.614 0 0 1 .265 1.565v8.168a.131.131 0 0 0 .132.13h3.6a.13.13 0 0 0 .131-.13v-9.04a4.572 4.572 0 0 0 -1.374-3.725z" transform="translate(-77.891 -46.508)"/><path d="m176.2 53.647a5.571 5.571 0 0 0 -2.374-2.036 7.567 7.567 0 0 0 -3.214-.641 6.613 6.613 0 0 0 -4.9 1.905 7.419 7.419 0 0 0 -1.9 5.437c0 2.517.709 4.36 2.105 5.476a7.45 7.45 0 0 0 4.821 1.692 6.7 6.7 0 0 0 5.147-2.006 4.482 4.482 0 0 0 1.333-2.507.13.13 0 0 0 -.032-.1.134.134 0 0 0 -.1-.045h-3.586a.127.127 0 0 0 -.115.07 2.578 2.578 0 0 1 -2.555 1.475 3.44 3.44 0 0 1 -1.873-.481 3.064 3.064 0 0 1 -1.331-2.6h9.645a.131.131 0 0 0 .131-.128 18.066 18.066 0 0 0 -.112-2.692 6.787 6.787 0 0 0 -1.09-2.819zm-5.589.481a2.956 2.956 0 0 1 1.993.689 2.669 2.669 0 0 1 .88 1.9h-5.747a3.41 3.41 0 0 1 .875-1.866 2.64 2.64 0 0 1 1.999-.722z" transform="translate(-89.76 -46.48)"/><path d="m202.205 51.706a.124.124 0 0 0 -.107-.056h-3.775a.129.129 0 0 0 -.125.093l-2.728 9.464-2.677-9.463a.127.127 0 0 0 -.125-.094h-3.941a.121.121 0 0 0 -.106.055.126.126 0 0 0 -.019.12l4.814 13.426a.13.13 0 0 0 .123.087h3.7a.13.13 0 0 0 .122-.087l4.858-13.426a.13.13 0 0 0 -.014-.119z" transform="translate(-101.373 -46.798)"/><path d="m225.8 53.647a5.583 5.583 0 0 0 -2.372-2.036 7.684 7.684 0 0 0 -3.221-.641 6.62 6.62 0 0 0 -4.9 1.905 7.313 7.313 0 0 0 -1.886 5.437c0 2.522.707 4.365 2.1 5.476a7.417 7.417 0 0 0 4.81 1.692 6.69 6.69 0 0 0 5.15-2 4.443 4.443 0 0 0 1.336-2.508.133.133 0 0 0 -.032-.1.13.13 0 0 0 -.1-.045h-3.584a.131.131 0 0 0 -.116.07 2.988 2.988 0 0 1 -.69.892 2.9 2.9 0 0 1 -1.869.584 3.4 3.4 0 0 1 -1.865-.481 3.045 3.045 0 0 1 -1.338-2.6h9.647a.131.131 0 0 0 .131-.128 17.6 17.6 0 0 0 -.115-2.69 6.747 6.747 0 0 0 -1.086-2.827zm-5.593.481a2.95 2.95 0 0 1 1.993.686 2.773 2.773 0 0 1 .885 1.9h-5.752a3.486 3.486 0 0 1 .876-1.865 2.636 2.636 0 0 1 2.002-.72z" transform="translate(-113.012 -46.48)"/><path d="m249.006 51.059-.178-.013-.134-.008c-.015 0-.031 0-.052 0s-.072 0-.117 0a3.94 3.94 0 0 0 -2.638.861 6.073 6.073 0 0 0 -1.2 1.479v-1.889a.13.13 0 0 0 -.132-.13h-3.355a.131.131 0 0 0 -.131.13v13.427a.131.131 0 0 0 .131.13h3.543a.13.13 0 0 0 .131-.13v-6.427a5.268 5.268 0 0 1 .386-2.322 2.809 2.809 0 0 1 2.729-1.306h.318.093c.172.008.358.028.584.054a.126.126 0 0 0 .1-.034.13.13 0 0 0 .046-.1v-3.6a.133.133 0 0 0 -.124-.122z" transform="translate(-125.966 -46.508)"/><path d="m265.346 48.566h-2.06v-3.612a.13.13 0 0 0 -.129-.132h-3.465a.132.132 0 0 0 -.131.132v3.612h-1.751a.129.129 0 0 0 -.129.132v2.5a.128.128 0 0 0 .129.131h1.751v8.141a2.607 2.607 0 0 0 .63 1.949 4.175 4.175 0 0 0 3.079.911c.135 0 .273 0 .418-.007l1.662-.061a.13.13 0 0 0 .128-.13v-2.62a.135.135 0 0 0 -.138-.132c-.044 0-.088 0-.128.005-.075 0-.149 0-.226.009-.109 0-.226 0-.333 0-.927 0-1.141-.113-1.186-.157s-.18-.265-.18-.941v-6.965h2.06a.131.131 0 0 0 .131-.131v-2.5a.132.132 0 0 0 -.132-.134z" transform="translate(-133.753 -43.598)"/><path d="m286.05 48.973a4.192 4.192 0 0 0 -1.72-1.368 5.891 5.891 0 0 0 -2.3-.44 4.922 4.922 0 0 0 -2.153.475 4.139 4.139 0 0 0 -1.583 1.332v-5.989a.13.13 0 0 0 -.129-.132h-3.515a.13.13 0 0 0 -.129.132v18.1a.129.129 0 0 0 .129.13h3.514a.129.129 0 0 0 .129-.13v-7.283a4.206 4.206 0 0 1 .69-2.576 2.358 2.358 0 0 1 1.992-.879 1.7 1.7 0 0 1 1.7.867 3.516 3.516 0 0 1 .352 1.694v8.176a.129.129 0 0 0 .131.13h3.586a.132.132 0 0 0 .134-.13v-7.888a18.777 18.777 0 0 0 -.131-2.613 3.569 3.569 0 0 0 -.697-1.608z" transform="translate(-141.646 -42.674)"/><path d="m312.5 64.275a1.118 1.118 0 0 1 -.466-.353 2.191 2.191 0 0 1 -.189-.868c0-.3 0-.582-.008-.839s0-.5 0-.709v-6.161a3.491 3.491 0 0 0 -1.8-3.424 8.851 8.851 0 0 0 -3.994-.891c-2.3 0-3.949.616-4.9 1.83a5.152 5.152 0 0 0 -1.018 2.967.118.118 0 0 0 .036.1.123.123 0 0 0 .093.042h3.38a.133.133 0 0 0 .131-.109 2.4 2.4 0 0 1 .478-1.165 2.088 2.088 0 0 1 1.676-.575 3.582 3.582 0 0 1 1.652.3 1.044 1.044 0 0 1 .507 1.02.941.941 0 0 1 -.671.886 6.415 6.415 0 0 1 -1.371.289l-1.2.15a8.684 8.684 0 0 0 -3.154.871 3.956 3.956 0 0 0 -1.993 3.7 3.867 3.867 0 0 0 1.241 3.064 4.559 4.559 0 0 0 3.112 1.07 5.276 5.276 0 0 0 2.645-.669 7.816 7.816 0 0 0 1.515-1.15 4.118 4.118 0 0 0 .078.519 3.56 3.56 0 0 0 .227.8.133.133 0 0 0 .122.085h3.819a.13.13 0 0 0 .131-.13v-.525a.131.131 0 0 0 -.079-.125zm-4.436-4.585a2.69 2.69 0 0 1 -.953 2.322 3.51 3.51 0 0 1 -2.038.635 1.735 1.735 0 0 1 -1.156-.372 1.388 1.388 0 0 1 -.461-1.192 1.465 1.465 0 0 1 .761-1.376 5.2 5.2 0 0 1 1.574-.46l.8-.156a5.821 5.821 0 0 0 .966-.244 3.568 3.568 0 0 0 .5-.234z" transform="translate(-153.44 -46.508)"/><path d="m331.354 51.331a.129.129 0 0 0 .13-.131v-2.5a.131.131 0 0 0 -.13-.132h-2.065v-3.614a.131.131 0 0 0 -.13-.132h-3.474a.13.13 0 0 0 -.129.132v3.612h-1.743a.132.132 0 0 0 -.132.132v2.5a.131.131 0 0 0 .132.131h1.743v8.141a2.7 2.7 0 0 0 .623 1.949 4.23 4.23 0 0 0 3.091.911q.2 0 .417-.007l1.668-.061a.13.13 0 0 0 .127-.13v-2.62a.139.139 0 0 0 -.04-.095.142.142 0 0 0 -.1-.038c-.044 0-.087 0-.128.005-.076 0-.154 0-.219.009h-.339c-.893 0-1.131-.1-1.188-.158s-.183-.287-.183-.94v-6.964z" transform="translate(-164.688 -43.598)"/><path d="m342.139 57.184a5.6 5.6 0 0 1 1.3-1.806 5.791 5.791 0 0 1 1.878-1.148 6.3 6.3 0 0 1 4.474 0 5.755 5.755 0 0 1 1.88 1.148 5.491 5.491 0 0 1 1.78 4.171 5.676 5.676 0 0 1 -.477 2.379 5.606 5.606 0 0 1 -1.3 1.81 5.523 5.523 0 0 1 -1.88 1.155 6.477 6.477 0 0 1 -4.474 0 5.622 5.622 0 0 1 -3.177-2.965 6.06 6.06 0 0 1 0-4.744zm1.421 4.176a4.543 4.543 0 0 0 .922 1.432 4.083 4.083 0 0 0 1.376.945 4.357 4.357 0 0 0 3.38 0 4 4 0 0 0 1.376-.945 4.611 4.611 0 0 0 .931-1.432 4.942 4.942 0 0 0 0-3.619 4.628 4.628 0 0 0 -.931-1.418 4.183 4.183 0 0 0 -1.376-.935 4.383 4.383 0 0 0 -3.38 0 4.272 4.272 0 0 0 -1.376.935 4.558 4.558 0 0 0 -.922 1.418 5.015 5.015 0 0 0 0 3.619zm4.133-5.037a3.413 3.413 0 0 1 1.868.431 1.622 1.622 0 0 1 .652 1.473 1.992 1.992 0 0 1 -.13.758 1.34 1.34 0 0 1 -.363.518 1.626 1.626 0 0 1 -.536.309 2.782 2.782 0 0 1 -.661.135l1.724 2.807h-1.339l-1.565-2.748h-.8v2.748h-1.276v-6.43zm-.014 2.686a2.3 2.3 0 0 0 .9-.152c.24-.1.357-.349.357-.736a.672.672 0 0 0 -.125-.417.856.856 0 0 0 -.316-.239 1.749 1.749 0 0 0 -.431-.116 3.866 3.866 0 0 0 -.452-.029h-1.075v1.69z" transform="translate(-173.112 -47.815)"/></svg>